<mxfile host="app.diagrams.net" agent="Mozilla/5.0 (X11; Linux x86_64) AppleWebKit/537.36 (KHTML, like Gecko) Chrome/130.0.0.0 Safari/537.36" version="25.0.3">
  <diagram name="Seite-1" id="Wqxzcvr5aupdezz4V94B">
    <mxGraphModel dx="1511" dy="964" grid="1" gridSize="10" guides="1" tooltips="1" connect="1" arrows="1" fold="1" page="1" pageScale="1" pageWidth="827" pageHeight="1169" math="0" shadow="0">
      <root>
        <mxCell id="0" />
        <mxCell id="1" parent="0" />
        <mxCell id="tF6KCtbzYXfdbOgwIn2T-80" value="" style="rounded=1;whiteSpace=wrap;html=1;fillColor=none;dashed=1;" parent="1" vertex="1">
          <mxGeometry x="422" y="1374.5" width="236" height="230" as="geometry" />
        </mxCell>
        <mxCell id="tF6KCtbzYXfdbOgwIn2T-64" value="" style="shape=cylinder3;whiteSpace=wrap;html=1;boundedLbl=1;backgroundOutline=1;size=15;rotation=90;" parent="1" vertex="1">
          <mxGeometry x="790" y="1357.5" width="120" height="260" as="geometry" />
        </mxCell>
        <mxCell id="tF6KCtbzYXfdbOgwIn2T-76" value="" style="verticalLabelPosition=bottom;html=1;verticalAlign=top;strokeWidth=2;shape=mxgraph.lean_mapping.physical_pull;pointerEvents=1;" parent="1" vertex="1">
          <mxGeometry x="494" y="1445" width="84" height="79" as="geometry" />
        </mxCell>
        <mxCell id="tF6KCtbzYXfdbOgwIn2T-78" value="get capture" style="text;html=1;align=center;verticalAlign=middle;whiteSpace=wrap;rounded=0;fontSize=16;" parent="1" vertex="1">
          <mxGeometry x="506" y="1545" width="60" height="30" as="geometry" />
        </mxCell>
        <mxCell id="tF6KCtbzYXfdbOgwIn2T-79" value="" style="endArrow=classic;html=1;rounded=0;entryX=0.5;entryY=1;entryDx=0;entryDy=0;entryPerimeter=0;" parent="1" target="tF6KCtbzYXfdbOgwIn2T-64" edge="1" source="tF6KCtbzYXfdbOgwIn2T-80">
          <mxGeometry width="50" height="50" relative="1" as="geometry">
            <mxPoint x="673" y="1490" as="sourcePoint" />
            <mxPoint x="1073" y="1360" as="targetPoint" />
          </mxGeometry>
        </mxCell>
        <mxCell id="tF6KCtbzYXfdbOgwIn2T-81" value="Producer" style="text;html=1;align=center;verticalAlign=middle;whiteSpace=wrap;rounded=0;fontSize=20;fontStyle=1" parent="1" vertex="1">
          <mxGeometry x="476" y="1405" width="130" height="30" as="geometry" />
        </mxCell>
        <mxCell id="tF6KCtbzYXfdbOgwIn2T-83" value="captures" style="text;html=1;align=center;verticalAlign=middle;whiteSpace=wrap;rounded=0;fontSize=16;" parent="1" vertex="1">
          <mxGeometry x="810" y="1468.5" width="60" height="30" as="geometry" />
        </mxCell>
        <mxCell id="tF6KCtbzYXfdbOgwIn2T-88" value="" style="endArrow=classic;html=1;rounded=0;exitX=0.5;exitY=0;exitDx=0;exitDy=0;exitPerimeter=0;entryX=0;entryY=0.5;entryDx=0;entryDy=0;" parent="1" source="tF6KCtbzYXfdbOgwIn2T-64" target="tjAWE_9rmo5MhlkttvxY-53" edge="1">
          <mxGeometry width="50" height="50" relative="1" as="geometry">
            <mxPoint x="983" y="1470" as="sourcePoint" />
            <mxPoint x="1047" y="1490" as="targetPoint" />
          </mxGeometry>
        </mxCell>
        <mxCell id="tF6KCtbzYXfdbOgwIn2T-92" value="" style="rounded=1;whiteSpace=wrap;html=1;fillColor=none;dashed=1;" parent="1" vertex="1">
          <mxGeometry x="1630" y="1374.5" width="300" height="250.5" as="geometry" />
        </mxCell>
        <mxCell id="tF6KCtbzYXfdbOgwIn2T-93" value="" style="verticalLabelPosition=bottom;html=1;verticalAlign=top;strokeWidth=2;shape=mxgraph.lean_mapping.physical_pull;pointerEvents=1;" parent="1" vertex="1">
          <mxGeometry x="1733.5" y="1454" width="94" height="89" as="geometry" />
        </mxCell>
        <mxCell id="tF6KCtbzYXfdbOgwIn2T-94" value="publish results" style="text;html=1;align=center;verticalAlign=middle;whiteSpace=wrap;rounded=0;fontSize=16;" parent="1" vertex="1">
          <mxGeometry x="1706.5" y="1558" width="137" height="30" as="geometry" />
        </mxCell>
        <mxCell id="tF6KCtbzYXfdbOgwIn2T-95" value="Consumer" style="text;html=1;align=center;verticalAlign=middle;whiteSpace=wrap;rounded=0;fontSize=20;fontStyle=1" parent="1" vertex="1">
          <mxGeometry x="1713.5" y="1407.5" width="130" height="30" as="geometry" />
        </mxCell>
        <mxCell id="tF6KCtbzYXfdbOgwIn2T-102" value="" style="endArrow=classic;html=1;rounded=0;entryX=0;entryY=0.5;entryDx=0;entryDy=0;exitX=1;exitY=0.5;exitDx=0;exitDy=0;" parent="1" source="tF6KCtbzYXfdbOgwIn2T-92" target="tjAWE_9rmo5MhlkttvxY-51" edge="1">
          <mxGeometry width="50" height="50" relative="1" as="geometry">
            <mxPoint x="1918" y="1399.5" as="sourcePoint" />
            <mxPoint x="2030" y="1498.4999999999995" as="targetPoint" />
          </mxGeometry>
        </mxCell>
        <mxCell id="tF6KCtbzYXfdbOgwIn2T-110" value="observe configuration" style="ellipse;whiteSpace=wrap;html=1;" parent="1" vertex="1">
          <mxGeometry x="617" y="1330" width="90" height="80" as="geometry" />
        </mxCell>
        <mxCell id="tF6KCtbzYXfdbOgwIn2T-111" value="observe configuration" style="ellipse;whiteSpace=wrap;html=1;" parent="1" vertex="1">
          <mxGeometry x="1873" y="1339.5" width="90" height="80" as="geometry" />
        </mxCell>
        <mxCell id="ZPbCwMIuDV3y0_hfb3_B-6" value="" style="endArrow=block;dashed=1;endFill=0;endSize=12;html=1;rounded=0;" parent="1" source="YiW_VXPOp-ECeVxad86_-35" target="YiW_VXPOp-ECeVxad86_-24" edge="1">
          <mxGeometry width="160" relative="1" as="geometry">
            <mxPoint x="858.5" y="1260" as="sourcePoint" />
            <mxPoint x="834" y="1100" as="targetPoint" />
          </mxGeometry>
        </mxCell>
        <mxCell id="ZPbCwMIuDV3y0_hfb3_B-7" value="" style="endArrow=block;dashed=1;endFill=0;endSize=12;html=1;rounded=0;entryX=0.022;entryY=0.959;entryDx=0;entryDy=0;exitX=0.5;exitY=0;exitDx=0;exitDy=0;entryPerimeter=0;" parent="1" source="YiW_VXPOp-ECeVxad86_-14" target="YiW_VXPOp-ECeVxad86_-23" edge="1">
          <mxGeometry width="160" relative="1" as="geometry">
            <mxPoint x="632" y="833" as="sourcePoint" />
            <mxPoint x="806" y="603" as="targetPoint" />
          </mxGeometry>
        </mxCell>
        <mxCell id="YiW_VXPOp-ECeVxad86_-1" value="SourceFactory" style="swimlane;fontStyle=1;align=center;verticalAlign=top;childLayout=stackLayout;horizontal=1;startSize=26;horizontalStack=0;resizeParent=1;resizeParentMax=0;resizeLast=0;collapsible=1;marginBottom=0;whiteSpace=wrap;html=1;" parent="1" vertex="1">
          <mxGeometry x="383" y="513" width="240" height="112" as="geometry" />
        </mxCell>
        <mxCell id="YiW_VXPOp-ECeVxad86_-2" value="+ field: type" style="text;strokeColor=none;fillColor=none;align=left;verticalAlign=top;spacingLeft=4;spacingRight=4;overflow=hidden;rotatable=0;points=[[0,0.5],[1,0.5]];portConstraint=eastwest;whiteSpace=wrap;html=1;" parent="YiW_VXPOp-ECeVxad86_-1" vertex="1">
          <mxGeometry y="26" width="240" height="26" as="geometry" />
        </mxCell>
        <mxCell id="YiW_VXPOp-ECeVxad86_-3" value="" style="line;strokeWidth=1;fillColor=none;align=left;verticalAlign=middle;spacingTop=-1;spacingLeft=3;spacingRight=3;rotatable=0;labelPosition=right;points=[];portConstraint=eastwest;strokeColor=inherit;" parent="YiW_VXPOp-ECeVxad86_-1" vertex="1">
          <mxGeometry y="52" width="240" height="8" as="geometry" />
        </mxCell>
        <mxCell id="YiW_VXPOp-ECeVxad86_-4" value="+ get_camera() : Camera" style="text;strokeColor=none;fillColor=none;align=left;verticalAlign=top;spacingLeft=4;spacingRight=4;overflow=hidden;rotatable=0;points=[[0,0.5],[1,0.5]];portConstraint=eastwest;whiteSpace=wrap;html=1;" parent="YiW_VXPOp-ECeVxad86_-1" vertex="1">
          <mxGeometry y="60" width="240" height="26" as="geometry" />
        </mxCell>
        <mxCell id="YiW_VXPOp-ECeVxad86_-13" value="+ get_camera_by_name(str) : Camera" style="text;strokeColor=none;fillColor=none;align=left;verticalAlign=top;spacingLeft=4;spacingRight=4;overflow=hidden;rotatable=0;points=[[0,0.5],[1,0.5]];portConstraint=eastwest;whiteSpace=wrap;html=1;" parent="YiW_VXPOp-ECeVxad86_-1" vertex="1">
          <mxGeometry y="86" width="240" height="26" as="geometry" />
        </mxCell>
        <mxCell id="YiW_VXPOp-ECeVxad86_-5" value="&lt;p style=&quot;margin:0px;margin-top:4px;text-align:center;&quot;&gt;&lt;i&gt;&amp;lt;&amp;lt;Interface&amp;gt;&amp;gt;&lt;/i&gt;&lt;br&gt;&lt;b&gt;Source&lt;/b&gt;&lt;/p&gt;&lt;hr size=&quot;1&quot; style=&quot;border-style:solid;&quot;&gt;&lt;p style=&quot;margin:0px;margin-left:4px;&quot;&gt;+ get_frame(): Frame&lt;br&gt;+ get_name(): str&lt;/p&gt;&lt;p style=&quot;margin:0px;margin-left:4px;&quot;&gt;+ release() : None&lt;/p&gt;" style="verticalAlign=top;align=left;overflow=fill;html=1;whiteSpace=wrap;" parent="1" vertex="1">
          <mxGeometry x="304" y="310" width="170" height="100" as="geometry" />
        </mxCell>
        <mxCell id="YiW_VXPOp-ECeVxad86_-7" value="&lt;p style=&quot;margin:0px;margin-top:4px;text-align:center;&quot;&gt;&lt;b&gt;PiCamera&lt;/b&gt;&lt;/p&gt;" style="verticalAlign=top;align=left;overflow=fill;html=1;whiteSpace=wrap;" parent="1" vertex="1">
          <mxGeometry x="170" y="523" width="140" height="60" as="geometry" />
        </mxCell>
        <mxCell id="YiW_VXPOp-ECeVxad86_-8" value="&lt;p style=&quot;margin:0px;margin-top:4px;text-align:center;&quot;&gt;&lt;b&gt;OpenCVCamera&lt;/b&gt;&lt;/p&gt;" style="verticalAlign=top;align=left;overflow=fill;html=1;whiteSpace=wrap;" parent="1" vertex="1">
          <mxGeometry x="193" y="550" width="140" height="60" as="geometry" />
        </mxCell>
        <mxCell id="YiW_VXPOp-ECeVxad86_-9" value="&lt;p style=&quot;margin:0px;margin-top:4px;text-align:center;&quot;&gt;&lt;b&gt;StaticFrameGenerator&lt;/b&gt;&lt;/p&gt;" style="verticalAlign=top;align=left;overflow=fill;html=1;whiteSpace=wrap;" parent="1" vertex="1">
          <mxGeometry x="223" y="583" width="140" height="60" as="geometry" />
        </mxCell>
        <mxCell id="YiW_VXPOp-ECeVxad86_-12" value="" style="endArrow=block;dashed=1;endFill=0;endSize=12;html=1;rounded=0;entryX=0.299;entryY=0.982;entryDx=0;entryDy=0;exitX=0.5;exitY=0;exitDx=0;exitDy=0;entryPerimeter=0;" parent="1" source="YiW_VXPOp-ECeVxad86_-7" target="YiW_VXPOp-ECeVxad86_-5" edge="1">
          <mxGeometry width="160" relative="1" as="geometry">
            <mxPoint x="413" y="468" as="sourcePoint" />
            <mxPoint x="398" y="420" as="targetPoint" />
          </mxGeometry>
        </mxCell>
        <mxCell id="YiW_VXPOp-ECeVxad86_-14" value="CaptureProducer" style="swimlane;fontStyle=1;align=center;verticalAlign=top;childLayout=stackLayout;horizontal=1;startSize=26;horizontalStack=0;resizeParent=1;resizeParentMax=0;resizeLast=0;collapsible=1;marginBottom=0;whiteSpace=wrap;html=1;" parent="1" vertex="1">
          <mxGeometry x="550" y="870" width="244" height="112" as="geometry" />
        </mxCell>
        <mxCell id="YiW_VXPOp-ECeVxad86_-16" value="" style="line;strokeWidth=1;fillColor=none;align=left;verticalAlign=middle;spacingTop=-1;spacingLeft=3;spacingRight=3;rotatable=0;labelPosition=right;points=[];portConstraint=eastwest;strokeColor=inherit;" parent="YiW_VXPOp-ECeVxad86_-14" vertex="1">
          <mxGeometry y="26" width="244" height="8" as="geometry" />
        </mxCell>
        <mxCell id="YiW_VXPOp-ECeVxad86_-17" value="+ start() : None" style="text;strokeColor=none;fillColor=none;align=left;verticalAlign=top;spacingLeft=4;spacingRight=4;overflow=hidden;rotatable=0;points=[[0,0.5],[1,0.5]];portConstraint=eastwest;whiteSpace=wrap;html=1;" parent="YiW_VXPOp-ECeVxad86_-14" vertex="1">
          <mxGeometry y="34" width="244" height="26" as="geometry" />
        </mxCell>
        <mxCell id="tjAWE_9rmo5MhlkttvxY-24" value="+ stop() : None" style="text;strokeColor=none;fillColor=none;align=left;verticalAlign=top;spacingLeft=4;spacingRight=4;overflow=hidden;rotatable=0;points=[[0,0.5],[1,0.5]];portConstraint=eastwest;whiteSpace=wrap;html=1;" vertex="1" parent="YiW_VXPOp-ECeVxad86_-14">
          <mxGeometry y="60" width="244" height="26" as="geometry" />
        </mxCell>
        <mxCell id="YiW_VXPOp-ECeVxad86_-18" value="+ update() : None" style="text;strokeColor=none;fillColor=none;align=left;verticalAlign=top;spacingLeft=4;spacingRight=4;overflow=hidden;rotatable=0;points=[[0,0.5],[1,0.5]];portConstraint=eastwest;whiteSpace=wrap;html=1;" parent="YiW_VXPOp-ECeVxad86_-14" vertex="1">
          <mxGeometry y="86" width="244" height="26" as="geometry" />
        </mxCell>
        <mxCell id="YiW_VXPOp-ECeVxad86_-21" value="" style="endArrow=open;endFill=1;endSize=12;html=1;rounded=0;entryX=0.75;entryY=1;entryDx=0;entryDy=0;exitX=0.5;exitY=0;exitDx=0;exitDy=0;" parent="1" source="YiW_VXPOp-ECeVxad86_-1" target="YiW_VXPOp-ECeVxad86_-5" edge="1">
          <mxGeometry width="160" relative="1" as="geometry">
            <mxPoint x="483" y="713" as="sourcePoint" />
            <mxPoint x="643" y="713" as="targetPoint" />
          </mxGeometry>
        </mxCell>
        <mxCell id="YiW_VXPOp-ECeVxad86_-22" value="" style="endArrow=open;endFill=1;endSize=12;html=1;rounded=0;entryX=0.559;entryY=1.076;entryDx=0;entryDy=0;entryPerimeter=0;exitX=0.25;exitY=0;exitDx=0;exitDy=0;" parent="1" source="YiW_VXPOp-ECeVxad86_-14" target="YiW_VXPOp-ECeVxad86_-13" edge="1">
          <mxGeometry width="160" relative="1" as="geometry">
            <mxPoint x="483" y="713" as="sourcePoint" />
            <mxPoint x="643" y="713" as="targetPoint" />
          </mxGeometry>
        </mxCell>
        <mxCell id="YiW_VXPOp-ECeVxad86_-23" value="&lt;p style=&quot;margin:0px;margin-top:4px;text-align:center;&quot;&gt;&lt;i&gt;&amp;lt;&amp;lt;Interface&amp;gt;&amp;gt;&lt;/i&gt;&lt;br&gt;&lt;b&gt;Observer&lt;/b&gt;&lt;/p&gt;&lt;hr size=&quot;1&quot; style=&quot;border-style:solid;&quot;&gt;&lt;p style=&quot;margin:0px;margin-left:4px;&quot;&gt;+update(Subject) : None&lt;/p&gt;" style="verticalAlign=top;align=left;overflow=fill;html=1;whiteSpace=wrap;" parent="1" vertex="1">
          <mxGeometry x="957.5" y="120" width="458" height="70" as="geometry" />
        </mxCell>
        <mxCell id="YiW_VXPOp-ECeVxad86_-24" value="&lt;p style=&quot;margin:0px;margin-top:4px;text-align:center;&quot;&gt;&lt;i&gt;&amp;lt;&amp;lt;Interface&amp;gt;&amp;gt;&lt;/i&gt;&lt;br&gt;&lt;b&gt;Subject&lt;/b&gt;&lt;/p&gt;&lt;hr size=&quot;1&quot; style=&quot;border-style:solid;&quot;&gt;&lt;p style=&quot;margin:0px;margin-left:4px;&quot;&gt;+ attach(Observer): None&lt;br&gt;+ detach(Observer): None&lt;/p&gt;&lt;p style=&quot;margin:0px;margin-left:4px;&quot;&gt;+ notify(): None&lt;/p&gt;" style="verticalAlign=top;align=left;overflow=fill;html=1;whiteSpace=wrap;" parent="1" vertex="1">
          <mxGeometry x="1087" y="233" width="170" height="100" as="geometry" />
        </mxCell>
        <mxCell id="YiW_VXPOp-ECeVxad86_-29" value="Controller" style="swimlane;fontStyle=1;align=center;verticalAlign=top;childLayout=stackLayout;horizontal=1;startSize=26;horizontalStack=0;resizeParent=1;resizeParentMax=0;resizeLast=0;collapsible=1;marginBottom=0;whiteSpace=wrap;html=1;" parent="1" vertex="1">
          <mxGeometry x="1076.5" y="1030" width="220" height="112" as="geometry" />
        </mxCell>
        <mxCell id="tjAWE_9rmo5MhlkttvxY-76" value="- _queue" style="text;strokeColor=none;fillColor=none;align=left;verticalAlign=top;spacingLeft=4;spacingRight=4;overflow=hidden;rotatable=0;points=[[0,0.5],[1,0.5]];portConstraint=eastwest;whiteSpace=wrap;html=1;" vertex="1" parent="YiW_VXPOp-ECeVxad86_-29">
          <mxGeometry y="26" width="220" height="26" as="geometry" />
        </mxCell>
        <mxCell id="YiW_VXPOp-ECeVxad86_-30" value="" style="line;strokeWidth=1;fillColor=none;align=left;verticalAlign=middle;spacingTop=-1;spacingLeft=3;spacingRight=3;rotatable=0;labelPosition=right;points=[];portConstraint=eastwest;strokeColor=inherit;" parent="YiW_VXPOp-ECeVxad86_-29" vertex="1">
          <mxGeometry y="52" width="220" height="8" as="geometry" />
        </mxCell>
        <mxCell id="YiW_VXPOp-ECeVxad86_-31" value="+ put(Capture&lt;span style=&quot;color: rgba(0, 0, 0, 0); font-family: monospace; font-size: 0px; text-wrap-mode: nowrap;&quot;&gt;%3CmxGraphModel%3E%3Croot%3E%3CmxCell%20id%3D%220%22%2F%3E%3CmxCell%20id%3D%221%22%20parent%3D%220%22%2F%3E%3CmxCell%20id%3D%222%22%20value%3D%22WebServer%22%20style%3D%22swimlane%3BfontStyle%3D1%3Balign%3Dcenter%3BverticalAlign%3Dtop%3BchildLayout%3DstackLayout%3Bhorizontal%3D1%3BstartSize%3D26%3BhorizontalStack%3D0%3BresizeParent%3D1%3BresizeParentMax%3D0%3BresizeLast%3D0%3Bcollapsible%3D1%3BmarginBottom%3D0%3BwhiteSpace%3Dwrap%3Bhtml%3D1%3B%22%20vertex%3D%221%22%20parent%3D%221%22%3E%3CmxGeometry%20x%3D%22742%22%20y%3D%22215%22%20width%3D%22144%22%20height%3D%2260%22%20as%3D%22geometry%22%2F%3E%3C%2FmxCell%3E%3CmxCell%20id%3D%223%22%20value%3D%22%22%20style%3D%22line%3BstrokeWidth%3D1%3BfillColor%3Dnone%3Balign%3Dleft%3BverticalAlign%3Dmiddle%3BspacingTop%3D-1%3BspacingLeft%3D3%3BspacingRight%3D3%3Brotatable%3D0%3BlabelPosition%3Dright%3Bpoints%3D%5B%5D%3BportConstraint%3Deastwest%3BstrokeColor%3Dinherit%3B%22%20vertex%3D%221%22%20parent%3D%222%22%3E%3CmxGeometry%20y%3D%2226%22%20width%3D%22144%22%20height%3D%228%22%20as%3D%22geometry%22%2F%3E%3C%2FmxCell%3E%3CmxCell%20id%3D%224%22%20value%3D%22%2B%20run()%20%3A%20None%22%20style%3D%22text%3BstrokeColor%3Dnone%3BfillColor%3Dnone%3Balign%3Dleft%3BverticalAlign%3Dtop%3BspacingLeft%3D4%3BspacingRight%3D4%3Boverflow%3Dhidden%3Brotatable%3D0%3Bpoints%3D%5B%5B0%2C0.5%5D%2C%5B1%2C0.5%5D%5D%3BportConstraint%3Deastwest%3BwhiteSpace%3Dwrap%3Bhtml%3D1%3B%22%20vertex%3D%221%22%20parent%3D%222%22%3E%3CmxGeometry%20y%3D%2234%22%20width%3D%22144%22%20height%3D%2226%22%20as%3D%22geometry%22%2F%3E%3C%2FmxCell%3E%3C%2Froot%3E%3C%2FmxGraphMode&lt;/span&gt;) : None" style="text;strokeColor=none;fillColor=none;align=left;verticalAlign=top;spacingLeft=4;spacingRight=4;overflow=hidden;rotatable=0;points=[[0,0.5],[1,0.5]];portConstraint=eastwest;whiteSpace=wrap;html=1;" parent="YiW_VXPOp-ECeVxad86_-29" vertex="1">
          <mxGeometry y="60" width="220" height="26" as="geometry" />
        </mxCell>
        <mxCell id="YiW_VXPOp-ECeVxad86_-32" value="+ get(bool, str&lt;span style=&quot;color: rgba(0, 0, 0, 0); font-family: monospace; font-size: 0px; text-wrap-mode: nowrap;&quot;&gt;%3CmxGraphModel%3E%3Croot%3E%3CmxCell%20id%3D%220%22%2F%3E%3CmxCell%20id%3D%221%22%20parent%3D%220%22%2F%3E%3CmxCell%20id%3D%222%22%20value%3D%22WebServer%22%20style%3D%22swimlane%3BfontStyle%3D1%3Balign%3Dcenter%3BverticalAlign%3Dtop%3BchildLayout%3DstackLayout%3Bhorizontal%3D1%3BstartSize%3D26%3BhorizontalStack%3D0%3BresizeParent%3D1%3BresizeParentMax%3D0%3BresizeLast%3D0%3Bcollapsible%3D1%3BmarginBottom%3D0%3BwhiteSpace%3Dwrap%3Bhtml%3D1%3B%22%20vertex%3D%221%22%20parent%3D%221%22%3E%3CmxGeometry%20x%3D%22742%22%20y%3D%22215%22%20width%3D%22144%22%20height%3D%2260%22%20as%3D%22geometry%22%2F%3E%3C%2FmxCell%3E%3CmxCell%20id%3D%223%22%20value%3D%22%22%20style%3D%22line%3BstrokeWidth%3D1%3BfillColor%3Dnone%3Balign%3Dleft%3BverticalAlign%3Dmiddle%3BspacingTop%3D-1%3BspacingLeft%3D3%3BspacingRight%3D3%3Brotatable%3D0%3BlabelPosition%3Dright%3Bpoints%3D%5B%5D%3BportConstraint%3Deastwest%3BstrokeColor%3Dinherit%3B%22%20vertex%3D%221%22%20parent%3D%222%22%3E%3CmxGeometry%20y%3D%2226%22%20width%3D%22144%22%20height%3D%228%22%20as%3D%22geometry%22%2F%3E%3C%2FmxCell%3E%3CmxCell%20id%3D%224%22%20value%3D%22%2B%20run()%20%3A%20None%22%20style%3D%22text%3BstrokeColor%3Dnone%3BfillColor%3Dnone%3Balign%3Dleft%3BverticalAlign%3Dtop%3BspacingLeft%3D4%3BspacingRight%3D4%3Boverflow%3Dhidden%3Brotatable%3D0%3Bpoints%3D%5B%5B0%2C0.5%5D%2C%5B1%2C0.5%5D%5D%3BportConstraint%3Deastwest%3BwhiteSpace%3Dwrap%3Bhtml%3D1%3B%22%20vertex%3D%221%22%20parent%3D%222%22%3E%3CmxGeometry%20y%3D%2234%22%20width%3D%22144%22%20height%3D%2226%22%20as%3D%22geometry%22%2F%3E%3C%2FmxCell%3E%3C%2Froot%3E%3C%2FmxGraphMode&lt;/span&gt;) : Capture" style="text;strokeColor=none;fillColor=none;align=left;verticalAlign=top;spacingLeft=4;spacingRight=4;overflow=hidden;rotatable=0;points=[[0,0.5],[1,0.5]];portConstraint=eastwest;whiteSpace=wrap;html=1;" parent="YiW_VXPOp-ECeVxad86_-29" vertex="1">
          <mxGeometry y="86" width="220" height="26" as="geometry" />
        </mxCell>
        <mxCell id="YiW_VXPOp-ECeVxad86_-33" value="" style="endArrow=open;endFill=1;endSize=12;html=1;rounded=0;" parent="1" source="YiW_VXPOp-ECeVxad86_-14" target="YiW_VXPOp-ECeVxad86_-29" edge="1">
          <mxGeometry width="160" relative="1" as="geometry">
            <mxPoint x="843" y="763" as="sourcePoint" />
            <mxPoint x="963" y="703" as="targetPoint" />
          </mxGeometry>
        </mxCell>
        <mxCell id="YiW_VXPOp-ECeVxad86_-35" value="Configuration" style="swimlane;fontStyle=1;align=center;verticalAlign=top;childLayout=stackLayout;horizontal=1;startSize=26;horizontalStack=0;resizeParent=1;resizeParentMax=0;resizeLast=0;collapsible=1;marginBottom=0;whiteSpace=wrap;html=1;" parent="1" vertex="1">
          <mxGeometry x="1029" y="392" width="290" height="190" as="geometry" />
        </mxCell>
        <mxCell id="YiW_VXPOp-ECeVxad86_-36" value="" style="line;strokeWidth=1;fillColor=none;align=left;verticalAlign=middle;spacingTop=-1;spacingLeft=3;spacingRight=3;rotatable=0;labelPosition=right;points=[];portConstraint=eastwest;strokeColor=inherit;" parent="YiW_VXPOp-ECeVxad86_-35" vertex="1">
          <mxGeometry y="26" width="290" height="8" as="geometry" />
        </mxCell>
        <mxCell id="YiW_VXPOp-ECeVxad86_-37" value="+ get_source() : str" style="text;strokeColor=none;fillColor=none;align=left;verticalAlign=top;spacingLeft=4;spacingRight=4;overflow=hidden;rotatable=0;points=[[0,0.5],[1,0.5]];portConstraint=eastwest;whiteSpace=wrap;html=1;" parent="YiW_VXPOp-ECeVxad86_-35" vertex="1">
          <mxGeometry y="34" width="290" height="26" as="geometry" />
        </mxCell>
        <mxCell id="YiW_VXPOp-ECeVxad86_-38" value="+ set_source(str): None" style="text;strokeColor=none;fillColor=none;align=left;verticalAlign=top;spacingLeft=4;spacingRight=4;overflow=hidden;rotatable=0;points=[[0,0.5],[1,0.5]];portConstraint=eastwest;whiteSpace=wrap;html=1;" parent="YiW_VXPOp-ECeVxad86_-35" vertex="1">
          <mxGeometry y="60" width="290" height="26" as="geometry" />
        </mxCell>
        <mxCell id="tjAWE_9rmo5MhlkttvxY-2" value="+ get_models() : [str]" style="text;strokeColor=none;fillColor=none;align=left;verticalAlign=top;spacingLeft=4;spacingRight=4;overflow=hidden;rotatable=0;points=[[0,0.5],[1,0.5]];portConstraint=eastwest;whiteSpace=wrap;html=1;" vertex="1" parent="YiW_VXPOp-ECeVxad86_-35">
          <mxGeometry y="86" width="290" height="26" as="geometry" />
        </mxCell>
        <mxCell id="tjAWE_9rmo5MhlkttvxY-3" value="+ set_models([str]): None" style="text;strokeColor=none;fillColor=none;align=left;verticalAlign=top;spacingLeft=4;spacingRight=4;overflow=hidden;rotatable=0;points=[[0,0.5],[1,0.5]];portConstraint=eastwest;whiteSpace=wrap;html=1;" vertex="1" parent="YiW_VXPOp-ECeVxad86_-35">
          <mxGeometry y="112" width="290" height="26" as="geometry" />
        </mxCell>
        <mxCell id="tjAWE_9rmo5MhlkttvxY-4" value="+ get_sinks() : [str]" style="text;strokeColor=none;fillColor=none;align=left;verticalAlign=top;spacingLeft=4;spacingRight=4;overflow=hidden;rotatable=0;points=[[0,0.5],[1,0.5]];portConstraint=eastwest;whiteSpace=wrap;html=1;" vertex="1" parent="YiW_VXPOp-ECeVxad86_-35">
          <mxGeometry y="138" width="290" height="26" as="geometry" />
        </mxCell>
        <mxCell id="tjAWE_9rmo5MhlkttvxY-5" value="+ set_sinks([str]): None" style="text;strokeColor=none;fillColor=none;align=left;verticalAlign=top;spacingLeft=4;spacingRight=4;overflow=hidden;rotatable=0;points=[[0,0.5],[1,0.5]];portConstraint=eastwest;whiteSpace=wrap;html=1;" vertex="1" parent="YiW_VXPOp-ECeVxad86_-35">
          <mxGeometry y="164" width="290" height="26" as="geometry" />
        </mxCell>
        <mxCell id="2hnJZk3z9wCdDaKQQEbq-1" value="&lt;p style=&quot;margin:0px;margin-top:4px;text-align:center;&quot;&gt;&lt;i&gt;&amp;lt;&amp;lt;Interface&amp;gt;&amp;gt;&lt;/i&gt;&lt;br&gt;&lt;b&gt;Operation&lt;/b&gt;&lt;/p&gt;&lt;hr size=&quot;1&quot; style=&quot;border-style:solid;&quot;&gt;&lt;p style=&quot;margin:0px;margin-left:4px;&quot;&gt;+ process(Capture):&amp;nbsp;&lt;span style=&quot;background-color: initial;&quot;&gt;Capture&lt;/span&gt;&lt;/p&gt;" style="verticalAlign=top;align=left;overflow=fill;html=1;whiteSpace=wrap;" parent="1" vertex="1">
          <mxGeometry x="1103" y="643" width="167" height="75" as="geometry" />
        </mxCell>
        <mxCell id="2hnJZk3z9wCdDaKQQEbq-5" value="" style="endArrow=block;dashed=1;endFill=0;endSize=12;html=1;rounded=0;exitX=0.5;exitY=0;exitDx=0;exitDy=0;" parent="1" source="2hnJZk3z9wCdDaKQQEbq-2" target="2hnJZk3z9wCdDaKQQEbq-1" edge="1">
          <mxGeometry width="160" relative="1" as="geometry">
            <mxPoint x="853" y="313" as="sourcePoint" />
            <mxPoint x="838" y="265" as="targetPoint" />
          </mxGeometry>
        </mxCell>
        <mxCell id="2hnJZk3z9wCdDaKQQEbq-6" value="" style="endArrow=open;endFill=1;endSize=12;html=1;rounded=0;exitX=0.5;exitY=0;exitDx=0;exitDy=0;entryX=0.5;entryY=1;entryDx=0;entryDy=0;" parent="1" source="YiW_VXPOp-ECeVxad86_-29" target="2hnJZk3z9wCdDaKQQEbq-1" edge="1">
          <mxGeometry width="160" relative="1" as="geometry">
            <mxPoint x="907" y="793" as="sourcePoint" />
            <mxPoint x="995" y="666" as="targetPoint" />
          </mxGeometry>
        </mxCell>
        <mxCell id="tjAWE_9rmo5MhlkttvxY-6" value="Capture" style="swimlane;fontStyle=1;align=center;verticalAlign=top;childLayout=stackLayout;horizontal=1;startSize=26;horizontalStack=0;resizeParent=1;resizeParentMax=0;resizeLast=0;collapsible=1;marginBottom=0;whiteSpace=wrap;html=1;" vertex="1" parent="1">
          <mxGeometry x="187" y="770" width="240" height="268" as="geometry" />
        </mxCell>
        <mxCell id="tjAWE_9rmo5MhlkttvxY-8" value="" style="line;strokeWidth=1;fillColor=none;align=left;verticalAlign=middle;spacingTop=-1;spacingLeft=3;spacingRight=3;rotatable=0;labelPosition=right;points=[];portConstraint=eastwest;strokeColor=inherit;" vertex="1" parent="tjAWE_9rmo5MhlkttvxY-6">
          <mxGeometry y="26" width="240" height="8" as="geometry" />
        </mxCell>
        <mxCell id="tjAWE_9rmo5MhlkttvxY-9" value="+ get_frame(): Matlike" style="text;strokeColor=none;fillColor=none;align=left;verticalAlign=top;spacingLeft=4;spacingRight=4;overflow=hidden;rotatable=0;points=[[0,0.5],[1,0.5]];portConstraint=eastwest;whiteSpace=wrap;html=1;" vertex="1" parent="tjAWE_9rmo5MhlkttvxY-6">
          <mxGeometry y="34" width="240" height="26" as="geometry" />
        </mxCell>
        <mxCell id="tjAWE_9rmo5MhlkttvxY-10" value="+ set_frame(Matlike): None" style="text;strokeColor=none;fillColor=none;align=left;verticalAlign=top;spacingLeft=4;spacingRight=4;overflow=hidden;rotatable=0;points=[[0,0.5],[1,0.5]];portConstraint=eastwest;whiteSpace=wrap;html=1;" vertex="1" parent="tjAWE_9rmo5MhlkttvxY-6">
          <mxGeometry y="60" width="240" height="26" as="geometry" />
        </mxCell>
        <mxCell id="tjAWE_9rmo5MhlkttvxY-12" value="+ get_timestamp() : datetime" style="text;strokeColor=none;fillColor=none;align=left;verticalAlign=top;spacingLeft=4;spacingRight=4;overflow=hidden;rotatable=0;points=[[0,0.5],[1,0.5]];portConstraint=eastwest;whiteSpace=wrap;html=1;" vertex="1" parent="tjAWE_9rmo5MhlkttvxY-6">
          <mxGeometry y="86" width="240" height="26" as="geometry" />
        </mxCell>
        <mxCell id="tjAWE_9rmo5MhlkttvxY-11" value="+ add_box(Boxes) : None" style="text;strokeColor=none;fillColor=none;align=left;verticalAlign=top;spacingLeft=4;spacingRight=4;overflow=hidden;rotatable=0;points=[[0,0.5],[1,0.5]];portConstraint=eastwest;whiteSpace=wrap;html=1;" vertex="1" parent="tjAWE_9rmo5MhlkttvxY-6">
          <mxGeometry y="112" width="240" height="26" as="geometry" />
        </mxCell>
        <mxCell id="tjAWE_9rmo5MhlkttvxY-13" value="+ get_boxes() : Boxes" style="text;strokeColor=none;fillColor=none;align=left;verticalAlign=top;spacingLeft=4;spacingRight=4;overflow=hidden;rotatable=0;points=[[0,0.5],[1,0.5]];portConstraint=eastwest;whiteSpace=wrap;html=1;" vertex="1" parent="tjAWE_9rmo5MhlkttvxY-6">
          <mxGeometry y="138" width="240" height="26" as="geometry" />
        </mxCell>
        <mxCell id="tjAWE_9rmo5MhlkttvxY-14" value="+ add_masks(Masks) : None" style="text;strokeColor=none;fillColor=none;align=left;verticalAlign=top;spacingLeft=4;spacingRight=4;overflow=hidden;rotatable=0;points=[[0,0.5],[1,0.5]];portConstraint=eastwest;whiteSpace=wrap;html=1;" vertex="1" parent="tjAWE_9rmo5MhlkttvxY-6">
          <mxGeometry y="164" width="240" height="26" as="geometry" />
        </mxCell>
        <mxCell id="tjAWE_9rmo5MhlkttvxY-15" value="+ get_masks() : Masks" style="text;strokeColor=none;fillColor=none;align=left;verticalAlign=top;spacingLeft=4;spacingRight=4;overflow=hidden;rotatable=0;points=[[0,0.5],[1,0.5]];portConstraint=eastwest;whiteSpace=wrap;html=1;" vertex="1" parent="tjAWE_9rmo5MhlkttvxY-6">
          <mxGeometry y="190" width="240" height="26" as="geometry" />
        </mxCell>
        <mxCell id="tjAWE_9rmo5MhlkttvxY-16" value="+ add_keypoints(Keypoints) : None" style="text;strokeColor=none;fillColor=none;align=left;verticalAlign=top;spacingLeft=4;spacingRight=4;overflow=hidden;rotatable=0;points=[[0,0.5],[1,0.5]];portConstraint=eastwest;whiteSpace=wrap;html=1;" vertex="1" parent="tjAWE_9rmo5MhlkttvxY-6">
          <mxGeometry y="216" width="240" height="26" as="geometry" />
        </mxCell>
        <mxCell id="tjAWE_9rmo5MhlkttvxY-17" value="+ get_keypoints() : Keypoints" style="text;strokeColor=none;fillColor=none;align=left;verticalAlign=top;spacingLeft=4;spacingRight=4;overflow=hidden;rotatable=0;points=[[0,0.5],[1,0.5]];portConstraint=eastwest;whiteSpace=wrap;html=1;" vertex="1" parent="tjAWE_9rmo5MhlkttvxY-6">
          <mxGeometry y="242" width="240" height="26" as="geometry" />
        </mxCell>
        <mxCell id="tjAWE_9rmo5MhlkttvxY-18" value="CaptureConsumer" style="swimlane;fontStyle=1;align=center;verticalAlign=top;childLayout=stackLayout;horizontal=1;startSize=26;horizontalStack=0;resizeParent=1;resizeParentMax=0;resizeLast=0;collapsible=1;marginBottom=0;whiteSpace=wrap;html=1;" vertex="1" parent="1">
          <mxGeometry x="1631.5" y="910" width="244" height="112" as="geometry" />
        </mxCell>
        <mxCell id="tjAWE_9rmo5MhlkttvxY-19" value="" style="line;strokeWidth=1;fillColor=none;align=left;verticalAlign=middle;spacingTop=-1;spacingLeft=3;spacingRight=3;rotatable=0;labelPosition=right;points=[];portConstraint=eastwest;strokeColor=inherit;" vertex="1" parent="tjAWE_9rmo5MhlkttvxY-18">
          <mxGeometry y="26" width="244" height="8" as="geometry" />
        </mxCell>
        <mxCell id="tjAWE_9rmo5MhlkttvxY-20" value="+ start() : None" style="text;strokeColor=none;fillColor=none;align=left;verticalAlign=top;spacingLeft=4;spacingRight=4;overflow=hidden;rotatable=0;points=[[0,0.5],[1,0.5]];portConstraint=eastwest;whiteSpace=wrap;html=1;" vertex="1" parent="tjAWE_9rmo5MhlkttvxY-18">
          <mxGeometry y="34" width="244" height="26" as="geometry" />
        </mxCell>
        <mxCell id="tjAWE_9rmo5MhlkttvxY-23" value="+ stop() : None" style="text;strokeColor=none;fillColor=none;align=left;verticalAlign=top;spacingLeft=4;spacingRight=4;overflow=hidden;rotatable=0;points=[[0,0.5],[1,0.5]];portConstraint=eastwest;whiteSpace=wrap;html=1;" vertex="1" parent="tjAWE_9rmo5MhlkttvxY-18">
          <mxGeometry y="60" width="244" height="26" as="geometry" />
        </mxCell>
        <mxCell id="tjAWE_9rmo5MhlkttvxY-21" value="+ update() : None" style="text;strokeColor=none;fillColor=none;align=left;verticalAlign=top;spacingLeft=4;spacingRight=4;overflow=hidden;rotatable=0;points=[[0,0.5],[1,0.5]];portConstraint=eastwest;whiteSpace=wrap;html=1;" vertex="1" parent="tjAWE_9rmo5MhlkttvxY-18">
          <mxGeometry y="86" width="244" height="26" as="geometry" />
        </mxCell>
        <mxCell id="tjAWE_9rmo5MhlkttvxY-22" value="" style="endArrow=block;dashed=1;endFill=0;endSize=12;html=1;rounded=0;entryX=0.938;entryY=0.968;entryDx=0;entryDy=0;exitX=0.5;exitY=0;exitDx=0;exitDy=0;entryPerimeter=0;" edge="1" parent="1" source="tjAWE_9rmo5MhlkttvxY-18" target="YiW_VXPOp-ECeVxad86_-23">
          <mxGeometry width="160" relative="1" as="geometry">
            <mxPoint x="742" y="793" as="sourcePoint" />
            <mxPoint x="874" y="470" as="targetPoint" />
          </mxGeometry>
        </mxCell>
        <mxCell id="tjAWE_9rmo5MhlkttvxY-25" value="&lt;p style=&quot;margin:0px;margin-top:4px;text-align:center;&quot;&gt;&lt;i&gt;&amp;lt;&amp;lt;Interface&amp;gt;&amp;gt;&lt;/i&gt;&lt;br&gt;&lt;b&gt;Sink&lt;/b&gt;&lt;/p&gt;&lt;hr size=&quot;1&quot; style=&quot;border-style:solid;&quot;&gt;&lt;p style=&quot;margin:0px;margin-left:4px;&quot;&gt;+put(Capture) : None&lt;/p&gt;" style="verticalAlign=top;align=left;overflow=fill;html=1;whiteSpace=wrap;" vertex="1" parent="1">
          <mxGeometry x="1815.5" y="470" width="170" height="70" as="geometry" />
        </mxCell>
        <mxCell id="tjAWE_9rmo5MhlkttvxY-26" value="" style="endArrow=open;endFill=1;endSize=12;html=1;rounded=0;exitX=0.75;exitY=0;exitDx=0;exitDy=0;" edge="1" parent="1" source="tjAWE_9rmo5MhlkttvxY-18" target="tjAWE_9rmo5MhlkttvxY-25">
          <mxGeometry width="160" relative="1" as="geometry">
            <mxPoint x="1184" y="603" as="sourcePoint" />
            <mxPoint x="1277" y="468" as="targetPoint" />
          </mxGeometry>
        </mxCell>
        <mxCell id="tjAWE_9rmo5MhlkttvxY-27" value="&lt;p style=&quot;margin:0px;margin-top:4px;text-align:center;&quot;&gt;&lt;b&gt;Console&lt;/b&gt;&lt;/p&gt;" style="verticalAlign=top;align=left;overflow=fill;html=1;whiteSpace=wrap;" vertex="1" parent="1">
          <mxGeometry x="1708.5" y="600" width="140" height="60" as="geometry" />
        </mxCell>
        <mxCell id="tjAWE_9rmo5MhlkttvxY-28" value="&lt;p style=&quot;margin:0px;margin-top:4px;text-align:center;&quot;&gt;&lt;b&gt;Webserver&lt;/b&gt;&lt;/p&gt;" style="verticalAlign=top;align=left;overflow=fill;html=1;whiteSpace=wrap;" vertex="1" parent="1">
          <mxGeometry x="1687" y="630" width="140" height="60" as="geometry" />
        </mxCell>
        <mxCell id="tjAWE_9rmo5MhlkttvxY-29" value="" style="endArrow=open;endFill=1;endSize=12;html=1;rounded=0;exitX=0.5;exitY=0;exitDx=0;exitDy=0;" edge="1" parent="1" source="tjAWE_9rmo5MhlkttvxY-27" target="tjAWE_9rmo5MhlkttvxY-25">
          <mxGeometry width="160" relative="1" as="geometry">
            <mxPoint x="1302.5" y="1041" as="sourcePoint" />
            <mxPoint x="1399.5" y="983" as="targetPoint" />
          </mxGeometry>
        </mxCell>
        <mxCell id="tjAWE_9rmo5MhlkttvxY-30" value="" style="endArrow=open;endFill=1;endSize=12;html=1;rounded=0;" edge="1" parent="1" source="tjAWE_9rmo5MhlkttvxY-18" target="YiW_VXPOp-ECeVxad86_-29">
          <mxGeometry width="160" relative="1" as="geometry">
            <mxPoint x="864" y="793" as="sourcePoint" />
            <mxPoint x="957" y="658" as="targetPoint" />
          </mxGeometry>
        </mxCell>
        <mxCell id="tjAWE_9rmo5MhlkttvxY-31" value="ModelCoordinator" style="swimlane;fontStyle=1;align=center;verticalAlign=top;childLayout=stackLayout;horizontal=1;startSize=26;horizontalStack=0;resizeParent=1;resizeParentMax=0;resizeLast=0;collapsible=1;marginBottom=0;whiteSpace=wrap;html=1;" vertex="1" parent="1">
          <mxGeometry x="1293" y="790" width="184" height="60" as="geometry" />
        </mxCell>
        <mxCell id="tjAWE_9rmo5MhlkttvxY-32" value="" style="line;strokeWidth=1;fillColor=none;align=left;verticalAlign=middle;spacingTop=-1;spacingLeft=3;spacingRight=3;rotatable=0;labelPosition=right;points=[];portConstraint=eastwest;strokeColor=inherit;" vertex="1" parent="tjAWE_9rmo5MhlkttvxY-31">
          <mxGeometry y="26" width="184" height="8" as="geometry" />
        </mxCell>
        <mxCell id="tjAWE_9rmo5MhlkttvxY-35" value="+ process(Capture): Capture" style="text;strokeColor=none;fillColor=none;align=left;verticalAlign=top;spacingLeft=4;spacingRight=4;overflow=hidden;rotatable=0;points=[[0,0.5],[1,0.5]];portConstraint=eastwest;whiteSpace=wrap;html=1;" vertex="1" parent="tjAWE_9rmo5MhlkttvxY-31">
          <mxGeometry y="34" width="184" height="26" as="geometry" />
        </mxCell>
        <mxCell id="tjAWE_9rmo5MhlkttvxY-37" value="" style="endArrow=block;dashed=1;endFill=0;endSize=12;html=1;rounded=0;entryX=0.75;entryY=1;entryDx=0;entryDy=0;" edge="1" parent="1" source="tjAWE_9rmo5MhlkttvxY-31" target="YiW_VXPOp-ECeVxad86_-23">
          <mxGeometry width="160" relative="1" as="geometry">
            <mxPoint x="742" y="793" as="sourcePoint" />
            <mxPoint x="1330" y="193" as="targetPoint" />
          </mxGeometry>
        </mxCell>
        <mxCell id="tjAWE_9rmo5MhlkttvxY-38" value="" style="endArrow=block;dashed=1;endFill=0;endSize=12;html=1;rounded=0;" edge="1" parent="1" source="tjAWE_9rmo5MhlkttvxY-31" target="2hnJZk3z9wCdDaKQQEbq-1">
          <mxGeometry width="160" relative="1" as="geometry">
            <mxPoint x="968" y="310" as="sourcePoint" />
            <mxPoint x="800" y="215" as="targetPoint" />
          </mxGeometry>
        </mxCell>
        <mxCell id="tjAWE_9rmo5MhlkttvxY-41" value="Source 1" style="rounded=0;whiteSpace=wrap;html=1;" vertex="1" parent="1">
          <mxGeometry x="130" y="1388.5" width="120" height="60" as="geometry" />
        </mxCell>
        <mxCell id="tjAWE_9rmo5MhlkttvxY-42" value="Source 2" style="rounded=0;whiteSpace=wrap;html=1;" vertex="1" parent="1">
          <mxGeometry x="130" y="1457.5" width="120" height="60" as="geometry" />
        </mxCell>
        <mxCell id="tjAWE_9rmo5MhlkttvxY-43" value="Source 3" style="rounded=0;whiteSpace=wrap;html=1;" vertex="1" parent="1">
          <mxGeometry x="130" y="1528.5" width="120" height="60" as="geometry" />
        </mxCell>
        <mxCell id="tjAWE_9rmo5MhlkttvxY-48" value="Thread" style="text;html=1;align=center;verticalAlign=middle;whiteSpace=wrap;rounded=0;" vertex="1" parent="1">
          <mxGeometry x="506" y="1468.5" width="60" height="30" as="geometry" />
        </mxCell>
        <mxCell id="tjAWE_9rmo5MhlkttvxY-49" value="Interface" style="rounded=1;whiteSpace=wrap;html=1;" vertex="1" parent="1">
          <mxGeometry x="297" y="1409.75" width="90" height="160.5" as="geometry" />
        </mxCell>
        <mxCell id="tjAWE_9rmo5MhlkttvxY-50" value="" style="endArrow=classic;html=1;rounded=0;" edge="1" parent="1" source="tjAWE_9rmo5MhlkttvxY-41" target="tjAWE_9rmo5MhlkttvxY-49">
          <mxGeometry width="50" height="50" relative="1" as="geometry">
            <mxPoint x="353" y="1500" as="sourcePoint" />
            <mxPoint x="260" y="1429" as="targetPoint" />
          </mxGeometry>
        </mxCell>
        <mxCell id="tjAWE_9rmo5MhlkttvxY-51" value="Interface" style="rounded=1;whiteSpace=wrap;html=1;" vertex="1" parent="1">
          <mxGeometry x="1994.25" y="1419.5" width="90" height="160.5" as="geometry" />
        </mxCell>
        <mxCell id="tjAWE_9rmo5MhlkttvxY-52" value="Thread" style="text;html=1;align=center;verticalAlign=middle;whiteSpace=wrap;rounded=0;" vertex="1" parent="1">
          <mxGeometry x="1748.5" y="1483.5" width="60" height="30" as="geometry" />
        </mxCell>
        <mxCell id="tjAWE_9rmo5MhlkttvxY-56" style="edgeStyle=orthogonalEdgeStyle;rounded=0;orthogonalLoop=1;jettySize=auto;html=1;exitX=1;exitY=0.5;exitDx=0;exitDy=0;entryX=0;entryY=0.5;entryDx=0;entryDy=0;" edge="1" parent="1" source="tjAWE_9rmo5MhlkttvxY-53" target="tjAWE_9rmo5MhlkttvxY-54">
          <mxGeometry relative="1" as="geometry" />
        </mxCell>
        <mxCell id="tjAWE_9rmo5MhlkttvxY-53" value="Operation" style="rounded=1;whiteSpace=wrap;html=1;" vertex="1" parent="1">
          <mxGeometry x="1060.13" y="1460" width="120" height="60" as="geometry" />
        </mxCell>
        <mxCell id="tjAWE_9rmo5MhlkttvxY-57" style="edgeStyle=orthogonalEdgeStyle;rounded=0;orthogonalLoop=1;jettySize=auto;html=1;exitX=1;exitY=0.5;exitDx=0;exitDy=0;entryX=0;entryY=0.5;entryDx=0;entryDy=0;" edge="1" parent="1" source="tjAWE_9rmo5MhlkttvxY-54" target="tjAWE_9rmo5MhlkttvxY-55">
          <mxGeometry relative="1" as="geometry" />
        </mxCell>
        <mxCell id="tjAWE_9rmo5MhlkttvxY-54" value="Operation" style="rounded=1;whiteSpace=wrap;html=1;" vertex="1" parent="1">
          <mxGeometry x="1217" y="1460" width="120" height="60" as="geometry" />
        </mxCell>
        <mxCell id="tjAWE_9rmo5MhlkttvxY-55" value="Operation" style="rounded=1;whiteSpace=wrap;html=1;" vertex="1" parent="1">
          <mxGeometry x="1377" y="1460" width="120" height="60" as="geometry" />
        </mxCell>
        <mxCell id="tjAWE_9rmo5MhlkttvxY-58" style="edgeStyle=orthogonalEdgeStyle;rounded=0;orthogonalLoop=1;jettySize=auto;html=1;entryX=-0.001;entryY=0.461;entryDx=0;entryDy=0;entryPerimeter=0;" edge="1" parent="1" source="tjAWE_9rmo5MhlkttvxY-55" target="tF6KCtbzYXfdbOgwIn2T-92">
          <mxGeometry relative="1" as="geometry" />
        </mxCell>
        <mxCell id="tjAWE_9rmo5MhlkttvxY-59" value="Queue" style="text;html=1;align=center;verticalAlign=middle;whiteSpace=wrap;rounded=0;" vertex="1" parent="1">
          <mxGeometry x="810" y="1423.5" width="60" height="30" as="geometry" />
        </mxCell>
        <mxCell id="tjAWE_9rmo5MhlkttvxY-60" value="Output 1" style="rounded=0;whiteSpace=wrap;html=1;" vertex="1" parent="1">
          <mxGeometry x="2130" y="1399.75" width="120" height="60" as="geometry" />
        </mxCell>
        <mxCell id="tjAWE_9rmo5MhlkttvxY-61" value="Output&amp;nbsp;2" style="rounded=0;whiteSpace=wrap;html=1;" vertex="1" parent="1">
          <mxGeometry x="2130" y="1468.75" width="120" height="60" as="geometry" />
        </mxCell>
        <mxCell id="tjAWE_9rmo5MhlkttvxY-62" value="Output&amp;nbsp;3" style="rounded=0;whiteSpace=wrap;html=1;" vertex="1" parent="1">
          <mxGeometry x="2130" y="1539.75" width="120" height="60" as="geometry" />
        </mxCell>
        <mxCell id="tjAWE_9rmo5MhlkttvxY-63" value="" style="endArrow=classic;html=1;rounded=0;entryX=0;entryY=0.5;entryDx=0;entryDy=0;exitX=1;exitY=0.5;exitDx=0;exitDy=0;" edge="1" parent="1" source="tjAWE_9rmo5MhlkttvxY-51" target="tjAWE_9rmo5MhlkttvxY-60">
          <mxGeometry width="50" height="50" relative="1" as="geometry">
            <mxPoint x="1950" y="1380" as="sourcePoint" />
            <mxPoint x="2000" y="1330" as="targetPoint" />
          </mxGeometry>
        </mxCell>
        <mxCell id="tjAWE_9rmo5MhlkttvxY-64" value="" style="endArrow=classic;html=1;rounded=0;entryX=0;entryY=0.5;entryDx=0;entryDy=0;exitX=1;exitY=0.5;exitDx=0;exitDy=0;" edge="1" parent="1" source="tjAWE_9rmo5MhlkttvxY-51" target="tjAWE_9rmo5MhlkttvxY-61">
          <mxGeometry width="50" height="50" relative="1" as="geometry">
            <mxPoint x="2094" y="1510" as="sourcePoint" />
            <mxPoint x="2140" y="1440" as="targetPoint" />
          </mxGeometry>
        </mxCell>
        <mxCell id="tjAWE_9rmo5MhlkttvxY-65" value="" style="endArrow=classic;html=1;rounded=0;entryX=0;entryY=0.5;entryDx=0;entryDy=0;exitX=1;exitY=0.5;exitDx=0;exitDy=0;" edge="1" parent="1" source="tjAWE_9rmo5MhlkttvxY-51" target="tjAWE_9rmo5MhlkttvxY-62">
          <mxGeometry width="50" height="50" relative="1" as="geometry">
            <mxPoint x="2094" y="1510" as="sourcePoint" />
            <mxPoint x="2140" y="1509" as="targetPoint" />
          </mxGeometry>
        </mxCell>
        <mxCell id="tjAWE_9rmo5MhlkttvxY-66" value="" style="rounded=1;whiteSpace=wrap;html=1;fillColor=none;dashed=1;" vertex="1" parent="1">
          <mxGeometry x="1030" y="1375" width="497" height="250" as="geometry" />
        </mxCell>
        <mxCell id="tjAWE_9rmo5MhlkttvxY-67" value="observe configuration" style="ellipse;whiteSpace=wrap;html=1;" vertex="1" parent="1">
          <mxGeometry x="1467" y="1339.5" width="90" height="80" as="geometry" />
        </mxCell>
        <mxCell id="tjAWE_9rmo5MhlkttvxY-68" value="Analyse" style="text;html=1;align=center;verticalAlign=middle;whiteSpace=wrap;rounded=0;fontSize=20;fontStyle=1" vertex="1" parent="1">
          <mxGeometry x="1213.5" y="1399.75" width="130" height="30" as="geometry" />
        </mxCell>
        <mxCell id="tjAWE_9rmo5MhlkttvxY-70" value="" style="group" vertex="1" connectable="0" parent="1">
          <mxGeometry x="920" y="790" width="193" height="120" as="geometry" />
        </mxCell>
        <mxCell id="2hnJZk3z9wCdDaKQQEbq-2" value="&lt;p style=&quot;margin:0px;margin-top:4px;text-align:center;&quot;&gt;&lt;b&gt;Ultralytics&lt;/b&gt;&lt;/p&gt;" style="verticalAlign=top;align=left;overflow=fill;html=1;whiteSpace=wrap;" parent="tjAWE_9rmo5MhlkttvxY-70" vertex="1">
          <mxGeometry width="140" height="60" as="geometry" />
        </mxCell>
        <mxCell id="2hnJZk3z9wCdDaKQQEbq-3" value="&lt;p style=&quot;margin:0px;margin-top:4px;text-align:center;&quot;&gt;&lt;b&gt;ONNX&lt;/b&gt;&lt;/p&gt;" style="verticalAlign=top;align=left;overflow=fill;html=1;whiteSpace=wrap;" parent="tjAWE_9rmo5MhlkttvxY-70" vertex="1">
          <mxGeometry x="23" y="27" width="140" height="60" as="geometry" />
        </mxCell>
        <mxCell id="2hnJZk3z9wCdDaKQQEbq-4" value="&lt;p style=&quot;margin:0px;margin-top:4px;text-align:center;&quot;&gt;&lt;b&gt;TF&lt;/b&gt;&lt;/p&gt;" style="verticalAlign=top;align=left;overflow=fill;html=1;whiteSpace=wrap;" parent="tjAWE_9rmo5MhlkttvxY-70" vertex="1">
          <mxGeometry x="53" y="60" width="140" height="60" as="geometry" />
        </mxCell>
        <mxCell id="tjAWE_9rmo5MhlkttvxY-71" value="" style="endArrow=open;endFill=1;endSize=12;html=1;rounded=0;" edge="1" parent="1" source="tjAWE_9rmo5MhlkttvxY-18" target="YiW_VXPOp-ECeVxad86_-35">
          <mxGeometry width="160" relative="1" as="geometry">
            <mxPoint x="1421" y="918" as="sourcePoint" />
            <mxPoint x="1213" y="712" as="targetPoint" />
          </mxGeometry>
        </mxCell>
        <mxCell id="tjAWE_9rmo5MhlkttvxY-72" value="" style="endArrow=open;endFill=1;endSize=12;html=1;rounded=0;" edge="1" parent="1" source="YiW_VXPOp-ECeVxad86_-14" target="YiW_VXPOp-ECeVxad86_-35">
          <mxGeometry width="160" relative="1" as="geometry">
            <mxPoint x="1126" y="827.5" as="sourcePoint" />
            <mxPoint x="1050" y="840.5" as="targetPoint" />
          </mxGeometry>
        </mxCell>
        <mxCell id="tjAWE_9rmo5MhlkttvxY-73" value="" style="endArrow=open;endFill=1;endSize=12;html=1;rounded=0;" edge="1" parent="1" source="tjAWE_9rmo5MhlkttvxY-31" target="YiW_VXPOp-ECeVxad86_-35">
          <mxGeometry width="160" relative="1" as="geometry">
            <mxPoint x="804" y="963" as="sourcePoint" />
            <mxPoint x="960" y="999" as="targetPoint" />
          </mxGeometry>
        </mxCell>
        <mxCell id="tjAWE_9rmo5MhlkttvxY-78" value="" style="endArrow=open;endFill=1;endSize=12;html=1;rounded=0;" edge="1" parent="1" source="tjAWE_9rmo5MhlkttvxY-28" target="YiW_VXPOp-ECeVxad86_-35">
          <mxGeometry width="160" relative="1" as="geometry">
            <mxPoint x="1696" y="920" as="sourcePoint" />
            <mxPoint x="1299" y="592" as="targetPoint" />
          </mxGeometry>
        </mxCell>
        <mxCell id="tjAWE_9rmo5MhlkttvxY-79" value="" style="endArrow=classic;html=1;rounded=0;" edge="1" parent="1">
          <mxGeometry width="50" height="50" relative="1" as="geometry">
            <mxPoint x="137" y="1320" as="sourcePoint" />
            <mxPoint x="297" y="1320" as="targetPoint" />
          </mxGeometry>
        </mxCell>
        <mxCell id="tjAWE_9rmo5MhlkttvxY-80" value="Datenfluss" style="text;html=1;align=center;verticalAlign=middle;whiteSpace=wrap;rounded=0;" vertex="1" parent="1">
          <mxGeometry x="137" y="1290" width="60" height="30" as="geometry" />
        </mxCell>
        <mxCell id="tjAWE_9rmo5MhlkttvxY-81" value="" style="endArrow=classic;html=1;rounded=0;exitX=1;exitY=0.5;exitDx=0;exitDy=0;" edge="1" parent="1" source="tjAWE_9rmo5MhlkttvxY-42" target="tjAWE_9rmo5MhlkttvxY-49">
          <mxGeometry width="50" height="50" relative="1" as="geometry">
            <mxPoint x="260" y="1457" as="sourcePoint" />
            <mxPoint x="307" y="1479" as="targetPoint" />
          </mxGeometry>
        </mxCell>
        <mxCell id="tjAWE_9rmo5MhlkttvxY-82" value="" style="endArrow=classic;html=1;rounded=0;" edge="1" parent="1" source="tjAWE_9rmo5MhlkttvxY-43" target="tjAWE_9rmo5MhlkttvxY-49">
          <mxGeometry width="50" height="50" relative="1" as="geometry">
            <mxPoint x="260" y="1498" as="sourcePoint" />
            <mxPoint x="307" y="1499" as="targetPoint" />
          </mxGeometry>
        </mxCell>
        <mxCell id="tjAWE_9rmo5MhlkttvxY-83" value="" style="endArrow=classic;html=1;rounded=0;" edge="1" parent="1" source="tjAWE_9rmo5MhlkttvxY-49" target="tF6KCtbzYXfdbOgwIn2T-80">
          <mxGeometry width="50" height="50" relative="1" as="geometry">
            <mxPoint x="260" y="1541" as="sourcePoint" />
            <mxPoint x="307" y="1520" as="targetPoint" />
          </mxGeometry>
        </mxCell>
      </root>
    </mxGraphModel>
  </diagram>
</mxfile>
